PathFileType	4	(X/Y/Z)	 s09c0203.trc
DataRate	CameraRate	NumFrames	NumMarkers	Units	OrigDataRate	OrigDataStartFrame	OrigNumFrames
200	200	5	50	mm	200	1001	2000
Frame#	Time	racr			lacr			c7			jug			rlel			rdr			llel			ldr			s2			lic			ric			lasi			rasi			rpsi			lpsi			rgt			lgt			rth1			rth2			rth3			rth4			rlfc			rmfc			rsh1			rsh2			rsh3			rsh4			rlmal			rmmal			rcal			rtoe			rmt5			lth1			lth2			lth4			lth3			llfc			lmfc			llmal			lmmal			lcal			lmt5			lsh1			lsh2			lsh3			lsh4			ltoe			SBIKE			LBIKE			RBIKE			
		X1	Y1	Z1	X2	Y2	Z2	X3	Y3	Z3	X4	Y4	Z4	X5	Y5	Z5	X6	Y6	Z6	X7	Y7	Z7	X8	Y8	Z8	X9	Y9	Z9	X10	Y10	Z10	X11	Y11	Z11	X12	Y12	Z12	X13	Y13	Z13	X14	Y14	Z14	X15	Y15	Z15	X16	Y16	Z16	X17	Y17	Z17	X18	Y18	Z18	X19	Y19	Z19	X20	Y20	Z20	X21	Y21	Z21	X22	Y22	Z22	X23	Y23	Z23	X24	Y24	Z24	X25	Y25	Z25	X26	Y26	Z26	X27	Y27	Z27	X28	Y28	Z28	X29	Y29	Z29	X30	Y30	Z30	X31	Y31	Z31	X32	Y32	Z32	X33	Y33	Z33	X34	Y34	Z34	X35	Y35	Z35	X36	Y36	Z36	X37	Y37	Z37	X38	Y38	Z38	X39	Y39	Z39	X40	Y40	Z40	X41	Y41	Z41	X42	Y42	Z42	X43	Y43	Z43	X44	Y44	Z44	X45	Y45	Z45	X46	Y46	Z46	X47	Y47	Z47	X48	Y48	Z48	X49	Y49	Z49	X50	Y50	Z50	
1001	5.0050	511.613743	1256.300059	-68.232930	506.195250	1204.875659	-412.345662	489.244806	1309.215534	-248.422150	463.036242	1178.793971	-234.585642	481.934216	1028.998862	54.103483	677.579073	908.735177	-29.632786	426.451930	950.750711	-515.385033	660.739753	903.283374	-431.065411	4.060435	1113.026730	-207.480865	128.526092	1129.274541	-365.320768	144.927164	1115.127591	-58.434637	181.664659	1083.081430	-340.576411	193.293817	1070.339951	-86.851023	33.839543	1140.963265	-147.093212	27.899074	1153.394247	-254.191559	126.615394	960.329459	-32.915945	126.469335	1020.826421	-401.402938	201.260409	840.890586	-39.004083	261.217557	777.185064	-48.863182	275.363261	690.572525	-63.612698	289.185898	791.793415	-68.865094	310.590225	605.096683	-95.787777	291.829911	583.446813	-191.131848	278.852744	507.226579	-62.686485	296.826225	420.148027	-76.295707	268.728785	337.157864	-76.847859	322.124601	422.683318	-107.371255	257.982677	232.527849	-76.089842	259.310582	244.557151	-152.093819	185.871985	197.062602	-110.360273	450.320560	187.286008	-132.034784	371.225957	168.930712	-61.752394	257.243553	962.304155	-399.259248	340.345648	951.232297	-385.979507	352.203080	980.550300	-362.835598	412.918543	896.365824	-384.688827	480.984476	823.094126	-365.497106	481.743081	797.769511	-266.447603	194.521010	603.126462	-403.197044	204.939680	597.990429	-328.726163	110.448203	606.362154	-364.946856	228.183228	475.852690	-427.341522	409.267716	761.777797	-394.139017	353.118070	694.687549	-390.313208	269.730929	664.507752	-397.503621	367.499143	674.862125	-360.397447	311.677165	441.093616	-359.633083	-64.122766	852.029178	-235.925388	21.041024	86.048610	-441.946933	21.167547	84.151336	-43.552173	
1002	5.0100	512.750561	1255.848567	-69.929384	503.721743	1205.363749	-415.137372	488.403152	1309.398726	-250.655149	463.027462	1178.837196	-236.636852	483.055215	1029.295489	53.856244	678.218735	908.790720	-29.760341	426.198720	949.456876	-516.047827	660.662192	903.248065	-430.786725	5.539017	1112.799181	-204.241611	127.072796	1130.465496	-363.765010	147.066143	1114.209338	-57.501567	180.794445	1084.372354	-339.967951	194.529582	1069.168810	-86.787590	34.421923	1140.976148	-144.565606	27.680607	1153.849176	-251.014979	127.550904	959.449913	-31.643999	125.664848	1024.064539	-400.659113	199.456132	840.024928	-38.474478	258.192747	775.251273	-48.599534	270.744421	688.256951	-63.070009	286.252280	789.304558	-68.911548	304.321816	602.209222	-96.198612	284.526019	580.627475	-191.655224	272.339126	505.105077	-62.966569	289.885116	418.016693	-76.570609	261.421856	335.003729	-76.820409	314.414493	420.001421	-107.814324	250.115472	230.598876	-76.025211	251.681707	242.155700	-151.947345	177.499292	196.525485	-110.257323	441.627513	180.750630	-132.037392	362.221528	164.236693	-61.741555	257.579392	968.897360	-398.425649	341.021353	959.287628	-384.157696	351.696471	987.545415	-359.803799	414.527390	905.910973	-384.408411	484.084042	833.030796	-365.558547	485.813096	806.823883	-266.600166	201.466324	607.330541	-403.196595	212.546961	603.230912	-328.712727	116.974023	608.797205	-365.132984	237.517588	480.961548	-427.404033	413.202594	770.807052	-393.779606	358.354039	702.791167	-390.640264	275.520970	671.193876	-397.535790	373.379492	682.637353	-361.310668	321.929096	447.967456	-359.934556	-64.127987	852.034234	-235.803322	21.051891	86.106744	-441.955060	21.179911	84.171818	-43.556210	
1003	5.0150	513.918820	1255.423556	-71.518897	501.332955	1205.913637	-417.728750	487.653680	1309.633884	-252.829002	463.054984	1178.942335	-238.686040	484.121569	1029.563977	53.678246	678.701231	908.823376	-29.789444	425.922049	948.291574	-516.690877	660.569942	903.211100	-430.529323	5.250562	1113.265827	-201.383255	126.668310	1131.573047	-363.025393	148.961014	1113.203489	-56.818036	179.864325	1085.598130	-339.408333	195.441585	1067.987391	-86.878516	35.139692	1141.027420	-141.896502	27.426536	1154.284572	-248.214123	128.404476	958.645230	-30.114899	124.850737	1027.547300	-400.110811	197.842503	839.546514	-37.900060	255.517116	773.792895	-48.361785	266.500620	686.632475	-62.723313	283.611376	787.470206	-69.006194	298.649347	599.991979	-96.522795	277.885387	578.651600	-192.310232	266.167308	503.726955	-63.150145	283.098035	416.454617	-76.789161	254.072702	333.772687	-76.847991	307.521392	418.302617	-108.138255	242.279106	229.507780	-75.876963	243.558961	240.769466	-151.850885	169.428472	196.633968	-110.436620	432.659735	174.900380	-132.022545	352.894146	160.343820	-61.762123	257.656338	975.458289	-397.424338	341.097961	966.926548	-382.549522	351.006591	994.737113	-357.351372	415.562071	915.297631	-384.068989	486.952183	842.784974	-365.526730	489.448386	815.474039	-266.610251	208.440036	610.681928	-403.219587	219.637875	607.352772	-329.305926	123.418995	610.272482	-365.375505	247.277543	485.403342	-427.831257	416.684825	779.352752	-393.674882	363.296707	710.345507	-390.918692	281.132988	676.915858	-397.607103	379.043010	689.973314	-362.235781	332.265247	454.368609	-359.986016	-64.143436	852.042580	-235.764950	21.050675	86.114023	-441.934982	21.206530	84.170892	-43.521933	
1004	5.0200	515.132009	1254.935868	-73.005874	499.020398	1206.569960	-420.425078	486.829103	1309.747080	-254.834975	462.988254	1178.912667	-240.762341	485.029731	1029.835137	53.640527	679.051966	908.831838	-29.774049	425.646001	947.259426	-517.315285	660.457026	903.197604	-430.373589	4.805962	1113.872757	-198.720062	125.280235	1132.866384	-361.639240	150.688132	1112.294335	-56.219081	178.781936	1086.579574	-338.957833	196.225903	1066.794665	-86.981002	35.760249	1141.184022	-139.425631	24.160709	1156.013381	-246.212513	129.204881	957.936450	-28.501027	124.073551	1031.192434	-399.775156	196.373285	839.494051	-37.476526	253.070260	772.837406	-48.142245	262.746232	685.549382	-62.486538	281.274000	786.152725	-68.956521	293.528211	598.815024	-96.948300	272.300416	577.672929	-193.041090	260.464501	502.827149	-63.351756	276.603782	415.493216	-77.112495	246.982330	333.013458	-76.969325	300.994477	417.148654	-108.514260	234.296607	229.270353	-75.781420	235.724594	239.998242	-151.877774	160.576211	197.518765	-110.217269	423.562473	169.636416	-131.908072	343.397738	157.146720	-61.668437	257.460318	981.833769	-396.397922	340.908016	974.468750	-381.515781	350.112531	1001.636749	-354.985741	416.160629	924.065617	-383.578123	490.630646	851.678684	-364.563201	492.451259	823.724522	-266.673433	215.369013	613.110804	-403.429479	225.568767	610.283293	-329.582159	129.594559	610.890763	-365.766067	256.970428	489.067688	-427.941124	419.567105	787.237850	-393.616008	368.084822	717.160057	-391.676009	286.591942	681.435633	-397.685296	384.382603	696.574415	-363.305021	342.699416	460.093558	-359.996034	-64.188882	852.043892	-235.792295	21.067896	86.090282	-441.899544	21.228897	84.195901	-43.497205	
1005	5.0250	516.388845	1254.351882	-74.453911	496.796956	1206.838556	-423.078633	485.899656	1309.597644	-256.858967	463.144334	1178.580499	-242.735942	485.779050	1029.999456	53.667327	679.288229	908.824561	-29.733100	425.435208	946.327492	-517.879151	660.309895	903.215085	-430.308758	4.291205	1114.593922	-196.320099	123.907040	1134.222854	-360.373655	152.086542	1111.485102	-55.707977	177.591637	1087.504599	-338.561238	196.680623	1065.880445	-87.206148	36.186063	1141.491731	-137.049134	23.532270	1156.855940	-243.760322	129.703435	957.562587	-26.692887	123.317453	1034.883859	-399.529555	195.017595	839.715906	-37.098749	250.946885	772.299324	-47.946252	259.282040	684.891271	-62.632351	279.238164	785.239437	-68.824024	289.101024	598.078435	-97.355891	267.868648	577.600152	-193.796048	255.304090	502.540473	-63.704900	270.530031	415.080820	-77.457931	240.227033	332.811993	-77.179358	294.977439	416.448060	-108.941103	226.317933	229.454374	-75.807808	227.892950	239.793494	-151.935719	152.018838	199.377802	-110.162175	414.190186	164.746903	-131.906755	333.811650	154.516803	-61.635606	256.917006	987.848901	-395.276229	340.407099	981.322547	-379.936356	349.015565	1008.069352	-352.808499	416.321150	932.181588	-382.807053	491.952465	860.603642	-364.401294	494.846796	831.616511	-266.528081	222.250039	614.932456	-404.138766	232.711408	613.337866	-328.404607	136.522945	610.645999	-366.281288	266.654822	492.005297	-427.975902	421.915639	794.289301	-393.637909	372.271332	722.763329	-391.987098	291.685650	685.056694	-398.032697	389.257864	702.302265	-363.996241	353.384001	465.801473	-360.497669	-64.269579	852.004260	-235.876661	21.072783	86.046279	-441.884437	21.247121	84.184528	-43.458734	
